<?xml version="1.0" encoding="UTF-8"?>
<svg id="_蝨門ｱ､_2" data-name="蝨門ｱ､ 2" xmlns="http://www.w3.org/2000/svg" viewBox="0 0 31.50 24.43">
  <defs>
    <style>
      .cls-1 {
        fill: #3ab483;
      }

      .cls-2 {
        fill: #527586;
      }
    </style>
  </defs>
  <g id="_險ｭ險育ｨｿ" data-name="險ｭ險育ｨｿ">
      <g>
        <path class="cls-1" d="M12.78,16.41c.5-.44.95-.96,1.33-1.53l-1.16-1.79c-1.27,2.77-4.51,4.11-7.38,2.98-2.97-1.17-4.44-4.54-3.27-7.51,1.17-2.97,4.54-4.44,7.51-3.27.13.05.26.11.39.17l1.68-1.04s.01-.03.02-.04c.79-2.01,3.07-3,5.08-2.21,1.37.54,2.27,1.77,2.45,3.14.54-.28,1.14-.53,1.79-.72-.4-1.83-1.68-3.43-3.55-4.17-2.89-1.14-6.16.22-7.42,3.03C6.36,2.06,2.05,4.01.53,7.87c-1.55,3.94.4,8.41,4.34,9.96.81.32,1.65.49,2.47.52h.41c.9-.01,1.72-.19,2.44-.45.94-.34,1.73-.82,2.35-1.3.08-.06.16-.12.23-.18Z"/>
        <path class="cls-2" d="M26.62,6.6c-.81-.32-1.65-.49-2.48-.52h-.41c-.9.01-1.71.19-2.44.45-.94.34-1.73.83-2.35,1.31-.13.1-.25.2-.37.3-.44.41-.84.88-1.18,1.4l1.16,1.79c1.27-2.77,4.51-4.11,7.38-2.98,2.97,1.17,4.44,4.54,3.27,7.51-1.17,2.97-4.54,4.44-7.51,3.27-.13-.05-.26-.11-.39-.17l-1.67,1.04s-.01.03-.02.04c-.79,2.01-3.07,3-5.08,2.21-1.37-.54-2.27-1.77-2.45-3.14-.54.28-1.14.53-1.79.72.4,1.83,1.68,3.43,3.55,4.17,2.89,1.14,6.16-.22,7.42-3.03,3.88,1.37,8.18-.58,9.7-4.43,1.55-3.94-.4-8.41-4.34-9.96Z"/>
        <polygon class="cls-2" points="11.26 7.02 18.63 18.41 20.23 17.41 12.86 6.02 11.26 7.02"/>
      </g>
  </g>
</svg>