<?xml version="1.0" encoding="UTF-8"?>
<svg id="_圖層_2" data-name="圖層 2" xmlns="http://www.w3.org/2000/svg" viewBox="0 0 130.94 24.43">
  <defs>
    <style>
      .cls-1 {
        fill: #3ab483;
      }

      .cls-2 {
        fill: #527586;
      }
    </style>
  </defs>
  <g id="_設計稿" data-name="設計稿">
    <g>
      <g>
        <g>
          <path class="cls-2" d="M41.05,8.34c1.06,0,1.88.54,2.28,1.42h1.88c-.5-1.83-2.1-3.09-4.15-3.09-2.56,0-4.44,1.91-4.44,4.44s1.88,4.44,4.44,4.44c2.05,0,3.64-1.26,4.15-3.09h-1.88c-.41.88-1.23,1.42-2.28,1.42-1.58,0-2.66-1.17-2.66-2.77s1.08-2.77,2.66-2.77Z"/>
          <rect class="cls-2" x="46.66" y="5.96" width="1.75" height="9.45"/>
          <path class="cls-2" d="M63.32,12.2c0,1.1-.53,1.68-1.5,1.68-.91,0-1.24-.49-1.24-1.37v-3.85h-1.75v4.23c0,1.64.92,2.66,2.4,2.66.93,0,1.6-.39,2.09-1.08v.93h1.75v-6.75h-1.75v3.55Z"/>
          <path class="cls-2" d="M71.99,9.6c-.47-.65-1.18-1.09-2.13-1.09-1.73,0-3.07,1.44-3.07,3.52s1.33,3.52,3.08,3.52c.96,0,1.66-.42,2.12-1.06v.91h1.75V5.96h-1.75v3.64ZM70.26,13.88c-.97,0-1.71-.74-1.71-1.85s.72-1.85,1.71-1.85,1.73.75,1.73,1.85-.75,1.85-1.73,1.85Z"/>
          <path class="cls-2" d="M53.64,8.51c-1.94,0-3.51,1.48-3.51,3.52s1.55,3.52,3.51,3.52,3.52-1.48,3.52-3.52-1.57-3.52-3.52-3.52ZM53.64,13.88c-.98,0-1.74-.74-1.74-1.85s.76-1.85,1.74-1.85,1.74.75,1.74,1.85-.76,1.85-1.74,1.85Z"/>
        </g>
        <g>
          <path class="cls-1" d="M105.4,8.51c-.93,0-1.61.38-2.1,1.07v-.92h-1.75v6.75h1.75v-3.55c0-1.1.53-1.68,1.52-1.68.93,0,1.26.49,1.26,1.37v3.85h1.75v-4.23c0-1.66-.92-2.66-2.44-2.66Z"/>
          <path class="cls-1" d="M130.55,8.51c-.96,0-1.69.44-2.11,1.32v-1.18h-1.75v6.75h1.75v-3.01c0-1.6.96-2.09,2.07-2.09.2,0,.29.01.43.02v-1.8c-.11-.01-.23-.02-.39-.02Z"/>
          <polygon class="cls-1" points="75.38 15.4 77.47 15.4 78.7 13.51 77.64 11.86 75.38 15.4"/>
          <polygon class="cls-1" points="83.01 6.82 80.86 6.82 79.23 9.37 77.59 6.82 75.45 6.82 78.17 11.04 79.23 12.68 80.98 15.4 83.08 15.4 80.29 11.04 83.01 6.82"/>
          <path class="cls-1" d="M88.35,8.51c-.96,0-1.67.44-2.14,1.1v-.96h-1.75v9.82h1.75v-3.99c.47.65,1.18,1.07,2.14,1.07,1.75,0,3.08-1.45,3.08-3.52s-1.35-3.52-3.08-3.52ZM87.95,13.88c-.98,0-1.73-.74-1.73-1.85s.75-1.85,1.73-1.85,1.71.75,1.71,1.85-.74,1.85-1.71,1.85Z"/>
          <path class="cls-1" d="M98.06,9.6c-.47-.65-1.18-1.09-2.13-1.09-1.73,0-3.07,1.44-3.07,3.52s1.31,3.52,3.08,3.52c.94,0,1.64-.42,2.12-1.06v.91s1.74,0,1.74,0v-6.75s-1.74,0-1.74,0v.94ZM96.33,13.88c-.97,0-1.71-.74-1.71-1.85s.72-1.85,1.71-1.85,1.73.75,1.73,1.85-.75,1.85-1.73,1.85Z"/>
          <path class="cls-1" d="M114.55,9.6c-.47-.65-1.18-1.09-2.13-1.09-1.73,0-3.07,1.44-3.07,3.52s1.33,3.52,3.08,3.52c.96,0,1.66-.42,2.12-1.06v.91h1.75V5.96h-1.75v3.64ZM112.82,13.88c-.97,0-1.71-.74-1.71-1.85s.72-1.85,1.71-1.85,1.73.75,1.73,1.85-.75,1.85-1.73,1.85Z"/>
          <path class="cls-1" d="M121.42,8.51c-2.06,0-3.52,1.51-3.52,3.53s1.45,3.51,3.56,3.51c1.45,0,2.8-.7,3.3-2.29h-1.82c-.23.54-.82.85-1.5.85-.91,0-1.64-.54-1.75-1.62h5.18c.17-2.22-1.22-3.98-3.45-3.98ZM119.77,11.2c.22-.72.77-1.24,1.63-1.24s1.4.5,1.6,1.24h-3.23Z"/>
        </g>
      </g>
      <g>
        <path class="cls-1" d="M12.78,16.41c.5-.44.95-.96,1.33-1.53l-1.16-1.79c-1.27,2.77-4.51,4.11-7.38,2.98-2.97-1.17-4.44-4.54-3.27-7.51,1.17-2.97,4.54-4.44,7.51-3.27.13.05.26.11.39.17l1.68-1.04s.01-.03.02-.04c.79-2.01,3.07-3,5.08-2.21,1.37.54,2.27,1.77,2.45,3.14.54-.28,1.14-.53,1.79-.72-.4-1.83-1.68-3.43-3.55-4.17-2.89-1.14-6.16.22-7.42,3.03C6.36,2.06,2.05,4.01.53,7.87c-1.55,3.94.4,8.41,4.34,9.96.81.32,1.65.49,2.47.52h.41c.9-.01,1.72-.19,2.44-.45.94-.34,1.73-.82,2.35-1.3.08-.06.16-.12.23-.18Z"/>
        <path class="cls-2" d="M26.62,6.6c-.81-.32-1.65-.49-2.48-.52h-.41c-.9.01-1.71.19-2.44.45-.94.34-1.73.83-2.35,1.31-.13.1-.25.2-.37.3-.44.41-.84.88-1.18,1.4l1.16,1.79c1.27-2.77,4.51-4.11,7.38-2.98,2.97,1.17,4.44,4.54,3.27,7.51-1.17,2.97-4.54,4.44-7.51,3.27-.13-.05-.26-.11-.39-.17l-1.67,1.04s-.01.03-.02.04c-.79,2.01-3.07,3-5.08,2.21-1.37-.54-2.27-1.77-2.45-3.14-.54.28-1.14.53-1.79.72.4,1.83,1.68,3.43,3.55,4.17,2.89,1.14,6.16-.22,7.42-3.03,3.88,1.37,8.18-.58,9.7-4.43,1.55-3.94-.4-8.41-4.34-9.96Z"/>
        <polygon class="cls-2" points="11.26 7.02 18.63 18.41 20.23 17.41 12.86 6.02 11.26 7.02"/>
      </g>
    </g>
  </g>
</svg>